<svg width="1280" height="360" viewBox="0 0 1280 360" fill="none" xmlns="http://www.w3.org/2000/svg">
  <rect width="1280" height="360" rx="28" fill="#F8FAFC"/>
  <rect width="1280" height="360" rx="28" fill="url(#paint0_linear)"/>
  <path d="M0 270C142 224 251 228 381 265C528 307 637 330 788 286C939 242 1062 220 1280 268V360H0V270Z" fill="#E0F2FE"/>
  <path d="M0 296C133 261 263 258 418 300C546 335 670 337 810 303C980 262 1120 263 1280 302V360H0V296Z" fill="#CCFBF1"/>

  <g opacity="0.96">
    <rect x="788" y="98" width="76" height="198" rx="6" fill="#1E3A8A"/>
    <rect x="878" y="58" width="90" height="238" rx="6" fill="#0F766E"/>
    <rect x="984" y="124" width="72" height="172" rx="6" fill="#334155"/>
    <rect x="1070" y="86" width="112" height="210" rx="6" fill="#2563EB"/>
    <rect x="824" y="132" width="14" height="18" rx="2" fill="#DBEAFE"/>
    <rect x="824" y="168" width="14" height="18" rx="2" fill="#DBEAFE"/>
    <rect x="824" y="204" width="14" height="18" rx="2" fill="#DBEAFE"/>
    <rect x="910" y="92" width="16" height="18" rx="2" fill="#CCFBF1"/>
    <rect x="910" y="130" width="16" height="18" rx="2" fill="#CCFBF1"/>
    <rect x="910" y="168" width="16" height="18" rx="2" fill="#CCFBF1"/>
    <rect x="910" y="206" width="16" height="18" rx="2" fill="#CCFBF1"/>
    <rect x="1008" y="158" width="14" height="18" rx="2" fill="#E2E8F0"/>
    <rect x="1008" y="196" width="14" height="18" rx="2" fill="#E2E8F0"/>
    <rect x="1104" y="124" width="16" height="18" rx="2" fill="#DBEAFE"/>
    <rect x="1104" y="162" width="16" height="18" rx="2" fill="#DBEAFE"/>
    <rect x="1104" y="200" width="16" height="18" rx="2" fill="#DBEAFE"/>
    <rect x="1142" y="124" width="16" height="18" rx="2" fill="#DBEAFE"/>
    <rect x="1142" y="162" width="16" height="18" rx="2" fill="#DBEAFE"/>
    <rect x="1142" y="200" width="16" height="18" rx="2" fill="#DBEAFE"/>
  </g>

  <g>
    <rect x="92" y="74" width="86" height="86" rx="22" fill="#DBEAFE"/>
    <path d="M117 119L135 103L153 119V145H117V119Z" fill="#1D4ED8"/>
    <path d="M129 145V128H141V145" fill="#EFF6FF"/>
  </g>

  <text x="92" y="210" fill="#0F172A" font-family="Arial, 'Noto Sans KR', sans-serif" font-size="46" font-weight="800">A-FIT 청약 진단 서비스</text>
  <text x="94" y="248" fill="#334155" font-family="Arial, 'Noto Sans KR', sans-serif" font-size="23" font-weight="600">아파트 분양 청약 초보자를 위한 AI 기반 가능성 진단 웹서비스</text>
  <text x="94" y="288" fill="#475569" font-family="Arial, 'Noto Sans KR', sans-serif" font-size="18">React · Django · FastAPI · LangGraph/RAG · PDF Analysis · Docker/AWS</text>

  <rect x="92" y="310" width="156" height="34" rx="17" fill="#1D4ED8"/>
  <text x="116" y="333" fill="white" font-family="Arial, 'Noto Sans KR', sans-serif" font-size="15" font-weight="700">청약 초보자</text>
  <rect x="262" y="310" width="180" height="34" rx="17" fill="#0F766E"/>
  <text x="286" y="333" fill="white" font-family="Arial, 'Noto Sans KR', sans-serif" font-size="15" font-weight="700">PDF 공고 분석</text>
  <rect x="456" y="310" width="176" height="34" rx="17" fill="#B45309"/>
  <text x="480" y="333" fill="white" font-family="Arial, 'Noto Sans KR', sans-serif" font-size="15" font-weight="700">진단 이력 저장</text>

  <defs>
    <linearGradient id="paint0_linear" x1="0" y1="0" x2="1280" y2="360" gradientUnits="userSpaceOnUse">
      <stop stop-color="#EFF6FF"/>
      <stop offset="0.48" stop-color="#F8FAFC"/>
      <stop offset="1" stop-color="#ECFDF5"/>
    </linearGradient>
  </defs>
</svg>
